<mxfile host="app.diagrams.net" agent="Mozilla/5.0 (Windows NT 10.0; Win64; x64) AppleWebKit/537.36 (KHTML, like Gecko) Chrome/138.0.0.0 Safari/537.36" version="28.0.7">
  <diagram name="Page-1" id="CGq95VE2gxc6fHMKPZJi">
    <mxGraphModel dx="1737" dy="1097" grid="1" gridSize="10" guides="1" tooltips="1" connect="1" arrows="1" fold="1" page="1" pageScale="1" pageWidth="850" pageHeight="1100" math="0" shadow="0">
      <root>
        <mxCell id="0" />
        <mxCell id="1" parent="0" />
        <mxCell id="waRkpYrcsfL-wph7jPA6-1" value="START" style="ellipse;whiteSpace=wrap;html=1;" vertex="1" parent="1">
          <mxGeometry x="400" y="30" width="120" height="80" as="geometry" />
        </mxCell>
        <mxCell id="waRkpYrcsfL-wph7jPA6-4" value="TESTING" style="rounded=1;whiteSpace=wrap;html=1;" vertex="1" parent="1">
          <mxGeometry x="400" y="530" width="120" height="60" as="geometry" />
        </mxCell>
        <mxCell id="waRkpYrcsfL-wph7jPA6-5" value="BUILD" style="rounded=1;whiteSpace=wrap;html=1;" vertex="1" parent="1">
          <mxGeometry x="400" y="410" width="120" height="60" as="geometry" />
        </mxCell>
        <mxCell id="waRkpYrcsfL-wph7jPA6-6" value="PLAN" style="rounded=1;whiteSpace=wrap;html=1;" vertex="1" parent="1">
          <mxGeometry x="400" y="170" width="120" height="60" as="geometry" />
        </mxCell>
        <mxCell id="waRkpYrcsfL-wph7jPA6-23" style="edgeStyle=orthogonalEdgeStyle;rounded=0;orthogonalLoop=1;jettySize=auto;html=1;" edge="1" parent="1" source="waRkpYrcsfL-wph7jPA6-7">
          <mxGeometry relative="1" as="geometry">
            <mxPoint x="460" y="710" as="targetPoint" />
          </mxGeometry>
        </mxCell>
        <mxCell id="waRkpYrcsfL-wph7jPA6-7" value="RELEASE" style="rounded=1;whiteSpace=wrap;html=1;" vertex="1" parent="1">
          <mxGeometry x="400" y="650" width="120" height="60" as="geometry" />
        </mxCell>
        <mxCell id="waRkpYrcsfL-wph7jPA6-8" value="DEPLOY" style="rounded=1;whiteSpace=wrap;html=1;" vertex="1" parent="1">
          <mxGeometry x="400" y="770" width="120" height="60" as="geometry" />
        </mxCell>
        <mxCell id="waRkpYrcsfL-wph7jPA6-9" value="OPERATE" style="rounded=1;whiteSpace=wrap;html=1;" vertex="1" parent="1">
          <mxGeometry x="400" y="890" width="120" height="60" as="geometry" />
        </mxCell>
        <mxCell id="waRkpYrcsfL-wph7jPA6-10" value="MONITOR" style="rounded=1;whiteSpace=wrap;html=1;" vertex="1" parent="1">
          <mxGeometry x="400" y="1010" width="120" height="60" as="geometry" />
        </mxCell>
        <mxCell id="waRkpYrcsfL-wph7jPA6-17" value="" style="shape=flexArrow;endArrow=classic;html=1;rounded=0;exitX=0.5;exitY=1;exitDx=0;exitDy=0;entryX=0.5;entryY=0;entryDx=0;entryDy=0;" edge="1" parent="1" source="waRkpYrcsfL-wph7jPA6-1" target="waRkpYrcsfL-wph7jPA6-6">
          <mxGeometry width="50" height="50" relative="1" as="geometry">
            <mxPoint x="435" y="160" as="sourcePoint" />
            <mxPoint x="485" y="110" as="targetPoint" />
            <Array as="points">
              <mxPoint x="460" y="140" />
            </Array>
          </mxGeometry>
        </mxCell>
        <mxCell id="waRkpYrcsfL-wph7jPA6-18" value="" style="shape=flexArrow;endArrow=classic;html=1;rounded=0;exitX=0.5;exitY=1;exitDx=0;exitDy=0;entryX=0.5;entryY=0;entryDx=0;entryDy=0;" edge="1" parent="1">
          <mxGeometry width="50" height="50" relative="1" as="geometry">
            <mxPoint x="459.5" y="230" as="sourcePoint" />
            <mxPoint x="459.5" y="290" as="targetPoint" />
            <Array as="points">
              <mxPoint x="459.5" y="260" />
            </Array>
          </mxGeometry>
        </mxCell>
        <mxCell id="waRkpYrcsfL-wph7jPA6-19" value="" style="shape=flexArrow;endArrow=classic;html=1;rounded=0;exitX=0.5;exitY=1;exitDx=0;exitDy=0;entryX=0.5;entryY=0;entryDx=0;entryDy=0;" edge="1" parent="1">
          <mxGeometry width="50" height="50" relative="1" as="geometry">
            <mxPoint x="459.5" y="350" as="sourcePoint" />
            <mxPoint x="459.5" y="410" as="targetPoint" />
            <Array as="points">
              <mxPoint x="459.5" y="380" />
            </Array>
          </mxGeometry>
        </mxCell>
        <mxCell id="waRkpYrcsfL-wph7jPA6-20" value="" style="shape=flexArrow;endArrow=classic;html=1;rounded=0;exitX=0.5;exitY=1;exitDx=0;exitDy=0;entryX=0.5;entryY=0;entryDx=0;entryDy=0;" edge="1" parent="1">
          <mxGeometry width="50" height="50" relative="1" as="geometry">
            <mxPoint x="459.5" y="470" as="sourcePoint" />
            <mxPoint x="459.5" y="530" as="targetPoint" />
            <Array as="points">
              <mxPoint x="459.5" y="500" />
            </Array>
          </mxGeometry>
        </mxCell>
        <mxCell id="waRkpYrcsfL-wph7jPA6-21" value="" style="shape=flexArrow;endArrow=classic;html=1;rounded=0;exitX=0.5;exitY=1;exitDx=0;exitDy=0;entryX=0.5;entryY=0;entryDx=0;entryDy=0;" edge="1" parent="1">
          <mxGeometry width="50" height="50" relative="1" as="geometry">
            <mxPoint x="459.5" y="590" as="sourcePoint" />
            <mxPoint x="459.5" y="650" as="targetPoint" />
            <Array as="points">
              <mxPoint x="459.5" y="620" />
            </Array>
          </mxGeometry>
        </mxCell>
        <mxCell id="waRkpYrcsfL-wph7jPA6-22" value="" style="shape=flexArrow;endArrow=classic;html=1;rounded=0;exitX=0.5;exitY=1;exitDx=0;exitDy=0;entryX=0.5;entryY=0;entryDx=0;entryDy=0;" edge="1" parent="1">
          <mxGeometry width="50" height="50" relative="1" as="geometry">
            <mxPoint x="459.5" y="710" as="sourcePoint" />
            <mxPoint x="459.5" y="770" as="targetPoint" />
            <Array as="points">
              <mxPoint x="459.5" y="740" />
            </Array>
          </mxGeometry>
        </mxCell>
        <mxCell id="waRkpYrcsfL-wph7jPA6-24" value="" style="shape=flexArrow;endArrow=classic;html=1;rounded=0;exitX=0.5;exitY=1;exitDx=0;exitDy=0;entryX=0.5;entryY=0;entryDx=0;entryDy=0;" edge="1" parent="1">
          <mxGeometry width="50" height="50" relative="1" as="geometry">
            <mxPoint x="459.5" y="830" as="sourcePoint" />
            <mxPoint x="459.5" y="890" as="targetPoint" />
            <Array as="points">
              <mxPoint x="459.5" y="860" />
            </Array>
          </mxGeometry>
        </mxCell>
        <mxCell id="waRkpYrcsfL-wph7jPA6-25" value="" style="shape=flexArrow;endArrow=classic;html=1;rounded=0;exitX=0.5;exitY=1;exitDx=0;exitDy=0;entryX=0.5;entryY=0;entryDx=0;entryDy=0;" edge="1" parent="1">
          <mxGeometry width="50" height="50" relative="1" as="geometry">
            <mxPoint x="459.5" y="950" as="sourcePoint" />
            <mxPoint x="459.5" y="1010" as="targetPoint" />
            <Array as="points">
              <mxPoint x="459.5" y="980" />
            </Array>
          </mxGeometry>
        </mxCell>
        <mxCell id="waRkpYrcsfL-wph7jPA6-26" value="DEVELOP" style="rounded=1;whiteSpace=wrap;html=1;" vertex="1" parent="1">
          <mxGeometry x="400" y="290" width="120" height="60" as="geometry" />
        </mxCell>
      </root>
    </mxGraphModel>
  </diagram>
</mxfile>
